<svg width="31" height="59" viewBox="0 0 31 59" fill="none" xmlns="http://www.w3.org/2000/svg">
<path d="M14.7645 38.728C15.1725 39.784 15.6645 40.744 16.2405 41.608C16.8405 42.472 17.5725 43.168 18.4365 43.696C19.3005 44.2 20.3325 44.452 21.5325 44.452C23.1645 44.452 24.4365 44.008 25.3485 43.12C26.2845 42.208 26.7525 41.056 26.7525 39.664C26.7525 38.44 26.4765 37.456 25.9245 36.712C25.3725 35.968 24.6525 35.368 23.7645 34.912C22.9005 34.432 21.9885 34.012 21.0285 33.652C20.3085 33.388 19.5525 33.076 18.7605 32.716C17.9925 32.332 17.2725 31.876 16.6005 31.348C15.9285 30.796 15.3765 30.136 14.9445 29.368C14.5365 28.6 14.3325 27.676 14.3325 26.596C14.3325 25.396 14.6205 24.34 15.1965 23.428C15.7725 22.492 16.5765 21.772 17.6085 21.268C18.6405 20.74 19.8045 20.476 21.1005 20.476C22.4445 20.476 23.5965 20.728 24.5565 21.232C25.5405 21.736 26.3565 22.372 27.0045 23.14C27.6525 23.908 28.1445 24.7 28.4805 25.516L26.7525 26.488C26.4885 25.84 26.1045 25.204 25.6005 24.58C25.1205 23.956 24.5085 23.44 23.7645 23.032C23.0205 22.6 22.0965 22.384 20.9925 22.384C19.5285 22.384 18.4005 22.768 17.6085 23.536C16.8165 24.28 16.4205 25.216 16.4205 26.344C16.4205 27.28 16.6485 28.084 17.1045 28.756C17.5605 29.428 18.2445 30.04 19.1565 30.592C20.0685 31.12 21.1965 31.624 22.5405 32.104C23.2365 32.368 23.9565 32.692 24.7005 33.076C25.4445 33.46 26.1165 33.94 26.7165 34.516C27.3405 35.092 27.8445 35.788 28.2285 36.604C28.6125 37.396 28.8045 38.344 28.8045 39.448C28.8045 40.48 28.6125 41.416 28.2285 42.256C27.8685 43.096 27.3525 43.828 26.6805 44.452C26.0325 45.052 25.2645 45.52 24.3765 45.856C23.4885 46.168 22.5285 46.324 21.4965 46.324C20.0325 46.324 18.7485 46.024 17.6445 45.424C16.5405 44.824 15.6165 44.02 14.8725 43.012C14.1285 42.004 13.5525 40.912 13.1445 39.736L14.7645 38.728Z" fill="#B6CFEA"/>
<path d="M2.38291 15.672V13.8H17.6109V15.672H10.9869V39H9.00691V15.672H2.38291Z" fill="white"/>
<path d="M20.4546 14.9319L22.3637 16.841L25.5455 13.6592" stroke="white" stroke-width="1.5" stroke-linecap="round" stroke-linejoin="round"/>
<path d="M28.0909 14.6817C29.0416 14.3095 30 13.4612 30 11.75C30 9.20455 27.879 8.56818 26.8182 8.56818C26.8182 7.29545 26.8182 4.75 23 4.75C19.1818 4.75 19.1818 7.29545 19.1818 8.56818C18.121 8.56818 16 9.20455 16 11.75C16 13.4612 16.9584 14.3095 17.9091 14.6817" stroke="#B6CFEA" stroke-width="2" stroke-linecap="round" stroke-linejoin="round"/>
</svg>
